<mxfile host="app.diagrams.net" agent="Mozilla/5.0 (Windows NT 10.0; Win64; x64) AppleWebKit/537.36 (KHTML, like Gecko) Chrome/124.0.0.0 Safari/537.36" version="24.7.16">
  <diagram id="C5RBs43oDa-KdzZeNtuy" name="Page-1">
    <mxGraphModel dx="1541" dy="804" grid="1" gridSize="10" guides="1" tooltips="1" connect="1" arrows="1" fold="1" page="1" pageScale="1" pageWidth="827" pageHeight="1169" math="0" shadow="0">
      <root>
        <mxCell id="WIyWlLk6GJQsqaUBKTNV-0" />
        <mxCell id="WIyWlLk6GJQsqaUBKTNV-1" parent="WIyWlLk6GJQsqaUBKTNV-0" />
        <mxCell id="vmqxld_592ILNKZE61BD-0" value="Welcome to quiz&lt;div&gt;game&lt;/div&gt;" style="rounded=0;whiteSpace=wrap;html=1;" vertex="1" parent="WIyWlLk6GJQsqaUBKTNV-1">
          <mxGeometry x="160" y="20" width="120" height="60" as="geometry" />
        </mxCell>
        <mxCell id="vmqxld_592ILNKZE61BD-3" value="" style="edgeStyle=none;curved=1;rounded=0;orthogonalLoop=1;jettySize=auto;html=1;entryX=0.5;entryY=0;entryDx=0;entryDy=0;fontSize=12;startSize=8;endSize=8;" edge="1" parent="WIyWlLk6GJQsqaUBKTNV-1" source="vmqxld_592ILNKZE61BD-0" target="vmqxld_592ILNKZE61BD-2">
          <mxGeometry relative="1" as="geometry">
            <mxPoint x="220" y="80" as="sourcePoint" />
            <mxPoint x="220" y="150" as="targetPoint" />
          </mxGeometry>
        </mxCell>
        <mxCell id="vmqxld_592ILNKZE61BD-7" value="" style="edgeStyle=none;curved=1;rounded=0;orthogonalLoop=1;jettySize=auto;html=1;fontSize=12;startSize=8;endSize=8;" edge="1" parent="WIyWlLk6GJQsqaUBKTNV-1" source="vmqxld_592ILNKZE61BD-2" target="vmqxld_592ILNKZE61BD-6">
          <mxGeometry relative="1" as="geometry" />
        </mxCell>
        <mxCell id="vmqxld_592ILNKZE61BD-9" value="" style="edgeStyle=none;curved=1;rounded=0;orthogonalLoop=1;jettySize=auto;html=1;fontSize=12;startSize=8;endSize=8;" edge="1" parent="WIyWlLk6GJQsqaUBKTNV-1" source="vmqxld_592ILNKZE61BD-2" target="vmqxld_592ILNKZE61BD-8">
          <mxGeometry relative="1" as="geometry" />
        </mxCell>
        <mxCell id="vmqxld_592ILNKZE61BD-13" style="edgeStyle=none;curved=1;rounded=0;orthogonalLoop=1;jettySize=auto;html=1;fontSize=12;startSize=8;endSize=8;" edge="1" parent="WIyWlLk6GJQsqaUBKTNV-1" source="vmqxld_592ILNKZE61BD-2" target="vmqxld_592ILNKZE61BD-4">
          <mxGeometry relative="1" as="geometry" />
        </mxCell>
        <mxCell id="vmqxld_592ILNKZE61BD-2" value="Ask question to user&lt;div&gt;Select from below category&lt;/div&gt;&lt;div&gt;1, Excel Quiz&lt;/div&gt;&lt;div&gt;2. Python Quiz&lt;/div&gt;&lt;div&gt;3. SQL Quiz&lt;/div&gt;&lt;div&gt;4. Quit&lt;/div&gt;" style="rounded=1;whiteSpace=wrap;html=1;" vertex="1" parent="WIyWlLk6GJQsqaUBKTNV-1">
          <mxGeometry x="140" y="100" width="160" height="100" as="geometry" />
        </mxCell>
        <mxCell id="vmqxld_592ILNKZE61BD-6" value="if user&amp;nbsp;&lt;div&gt;select&lt;div&gt;Quit&lt;/div&gt;&lt;div&gt;end of&amp;nbsp;&lt;/div&gt;&lt;div&gt;game&lt;/div&gt;&lt;/div&gt;" style="rhombus;whiteSpace=wrap;html=1;rounded=1;" vertex="1" parent="WIyWlLk6GJQsqaUBKTNV-1">
          <mxGeometry x="-40" y="100" width="120" height="110" as="geometry" />
        </mxCell>
        <mxCell id="vmqxld_592ILNKZE61BD-8" value="if user select python quiz" style="whiteSpace=wrap;html=1;rounded=1;" vertex="1" parent="WIyWlLk6GJQsqaUBKTNV-1">
          <mxGeometry x="204" y="220" width="96" height="45" as="geometry" />
        </mxCell>
        <mxCell id="vmqxld_592ILNKZE61BD-10" style="edgeStyle=none;curved=1;rounded=0;orthogonalLoop=1;jettySize=auto;html=1;exitX=1;exitY=1;exitDx=0;exitDy=0;fontSize=12;startSize=8;endSize=8;" edge="1" parent="WIyWlLk6GJQsqaUBKTNV-1" source="vmqxld_592ILNKZE61BD-8" target="vmqxld_592ILNKZE61BD-8">
          <mxGeometry relative="1" as="geometry" />
        </mxCell>
        <mxCell id="vmqxld_592ILNKZE61BD-11" style="edgeStyle=none;curved=1;rounded=0;orthogonalLoop=1;jettySize=auto;html=1;exitX=0.5;exitY=0;exitDx=0;exitDy=0;fontSize=12;startSize=8;endSize=8;" edge="1" parent="WIyWlLk6GJQsqaUBKTNV-1" source="vmqxld_592ILNKZE61BD-4" target="vmqxld_592ILNKZE61BD-4">
          <mxGeometry relative="1" as="geometry" />
        </mxCell>
        <mxCell id="vmqxld_592ILNKZE61BD-4" value="If user select Excel Quiz" style="rounded=1;whiteSpace=wrap;html=1;" vertex="1" parent="WIyWlLk6GJQsqaUBKTNV-1">
          <mxGeometry x="318" y="120" width="96" height="40" as="geometry" />
        </mxCell>
      </root>
    </mxGraphModel>
  </diagram>
</mxfile>
